<?xml version="1.0" encoding="UTF-8"?>
<svg id="Layer_1" xmlns="http://www.w3.org/2000/svg" version="1.1" xmlns:xlink="http://www.w3.org/1999/xlink" viewBox="0 0 1267.45 376.22">
  <!-- Generator: Adobe Illustrator 29.6.1, SVG Export Plug-In . SVG Version: 2.1.1 Build 9)  -->
  <defs>
    <style>
      .st0 {
        fill: #409abf;
      }

      .st1 {
        fill: #132f56;
      }

      .st2 {
        fill: url(#linear-gradient);
      }

      .st3 {
        fill: #69724c;
      }

      .st4 {
        fill: #a43c45;
      }
    </style>
    <linearGradient id="linear-gradient" x1="393" y1="154.5" x2="1238.85" y2="154.5" gradientUnits="userSpaceOnUse">
      <stop offset="0" stop-color="#409abf"/>
      <stop offset="1" stop-color="#2b718d"/>
    </linearGradient>
  </defs>
  <path class="st2" d="M433.73,69.09c-1.54,2.63-2.28,5.7-2.28,9.39,0,7.65,2.31,13.51,7.06,17.91,5.33,4.94,13.76,9.26,25.04,12.83l14.68,4.45c6.61,2,13.29,4.5,19.85,7.43,6.84,3.06,13.09,6.94,18.57,11.53,5.64,4.73,10.31,10.45,13.88,17,3.69,6.79,5.56,14.75,5.56,23.66,0,19.06-6.59,33.94-19.57,44.23-12.55,9.94-30.1,14.98-52.16,14.98-11.7,0-23.21-1.58-34.23-4.71-11.01-3.12-21.73-7.87-31.86-14.1l-5.27-3.25,15.19-24.93,5.32,3.27c8.04,4.94,16.36,8.83,24.73,11.58,8.2,2.68,16.98,4.05,26.12,4.05,13.8,0,24.57-2.73,32.03-8.1,6.91-4.99,10.28-12.08,10.28-21.68,0-4.39-.77-8.23-2.29-11.39-1.54-3.21-3.86-6.12-6.89-8.66-3.26-2.74-7.38-5.21-12.25-7.34-5.22-2.29-11.14-4.46-17.57-6.46l-13.36-4.01c-17.42-5.23-30.58-12.63-39.14-22-8.86-9.71-13.36-21.47-13.36-34.94,0-8.98,1.98-16.92,5.88-23.6,3.81-6.52,8.92-11.98,15.19-16.21,6.09-4.11,12.96-7.15,20.41-9.04,7.25-1.83,14.8-2.76,22.43-2.76,12,0,23.53,1.59,34.28,4.72,10.69,3.12,21.25,7.87,31.36,14.09l5.25,3.23-14.96,24.8-5.37-3.39c-7.99-5.05-16.26-8.92-24.57-11.5-8.24-2.56-17.13-3.86-26.44-3.86-5,0-9.82.54-14.32,1.62-4.27,1.02-7.89,2.5-10.76,4.4-2.72,1.79-4.83,4.01-6.44,6.78ZM574.59,41.85c-4.91,0-9.37,1.87-12.9,5.4-3.53,3.53-5.4,7.99-5.4,12.89s1.87,9.37,5.4,12.89c3.53,3.53,7.99,5.4,12.9,5.4s9.36-1.87,12.89-5.4,5.4-7.99,5.4-12.89-1.86-9.36-5.4-12.89c-3.53-3.53-7.99-5.4-12.89-5.4ZM560.32,230.26h28.32V93.5h-28.32v136.76ZM718.95,103.05c-5.45-4.66-11.98-7.9-19.43-9.61-13.4-3.07-29.02-2.95-46.72-.9-8.43.98-17.91,2.47-28.18,4.42l-5.05.97v132.33h28.32v-108.58c9.94-1.69,19.41-2.54,28.21-2.54,5.52,0,10.39.56,14.46,1.68,3.59.98,6.46,2.58,8.76,4.88,2.32,2.32,4.21,5.82,5.61,10.4,1.52,4.98,2.3,11.78,2.3,20.2v73.97h28.32v-80.68c0-10.96-1.37-20.29-4.06-27.72-2.82-7.77-7.03-14.1-12.53-18.82ZM869.88,97.54l4.51,1.29v128.56c0,18.34-5.7,32.07-16.93,40.8-10.77,8.36-25.14,12.6-42.73,12.6-3.6,0-7.39-.2-11.25-.59-3.84-.39-7.74-.99-11.57-1.77-3.87-.79-7.7-1.79-11.38-2.96-3.78-1.21-7.7-2.78-11.65-4.68l-2.98-1.43-5.2-35.18,10.9,5.85c5.91,3.17,10.43,5.41,13.43,6.67,2.9,1.21,6.02,2.24,9.28,3.06,3.39.85,6.81,1.57,10.16,2.14,3.15.53,6.23.8,9.13.8,10.49,0,18.75-2.21,24.54-6.57,4.24-3.19,6.74-8.13,7.59-15.02-6.86.92-12.99,1.39-18.27,1.39-12.63,0-23.94-1.87-33.63-5.55-9.81-3.73-18.11-8.94-24.66-15.51-6.57-6.56-11.53-14.32-14.74-23.04-3.15-8.55-4.74-17.7-4.74-27.19s1.6-18.61,4.75-27.1c3.22-8.67,8.21-16.3,14.82-22.66,6.55-6.31,14.83-11.35,24.61-14.99,9.67-3.6,20.97-5.42,33.58-5.42,5.91,0,12.65.55,20.02,1.63,7.32,1.08,14.85,2.72,22.38,4.87ZM838.98,120.07c-4.22-.62-8.24-.94-11.95-.94-16.72,0-29.02,3.73-36.58,11.09-7.61,7.42-11.31,17.55-11.31,30.98,0,6.85.97,13.03,2.88,18.36,1.83,5.1,4.66,9.53,8.42,13.16,3.79,3.67,8.66,6.54,14.47,8.54,6.02,2.08,13.46,3.13,22.13,3.13,3.07,0,6.77-.22,11.01-.64,2.64-.26,5.33-.67,8.04-1.22v-81.34c-2.26-.39-4.63-.77-7.1-1.14ZM1050.12,154.8c1.65,5.76,2.48,11.52,2.48,17.14,0,10.22-2.01,19.21-5.98,26.71-3.94,7.48-9.32,13.66-15.99,18.38-6.5,4.61-14.09,8.02-22.55,10.13-8.22,2.05-17.08,3.09-26.33,3.09h-71.96V30.67h61.67c11.7,0,22.04,1.29,30.71,3.83,8.86,2.6,16.38,6.32,22.34,11.04,6.16,4.87,10.74,10.73,13.6,17.41,2.78,6.49,4.19,13.45,4.19,20.67,0,4.83-.63,9.69-1.88,14.44-1.28,4.84-3.33,9.55-6.1,14-2.47,3.96-5.61,7.63-9.36,10.91.71.45,1.48.94,2.32,1.49,5.92,3.84,10.84,8.42,14.62,13.64,3.77,5.19,6.53,10.81,8.21,16.7ZM938.78,201.95h42.3c14.97,0,25.93-2.82,32.56-8.39,6.4-5.36,9.51-12.29,9.51-21.17,0-6.47-1.12-11.72-3.32-15.59-2.27-3.98-5.21-7.06-8.98-9.44-3.91-2.46-8.66-4.2-14.11-5.18-5.87-1.05-12.19-1.58-18.8-1.58h-39.17v61.35ZM1012.43,84.52c0-2.78-.7-5.69-2.09-8.64-1.41-3-3.5-5.63-6.4-8.04-2.96-2.47-7.02-4.57-12.08-6.26-5.15-1.72-11.41-2.59-18.6-2.59h-34.47v53.3h34.47c13.71,0,23.9-2.53,30.27-7.51,5.99-4.69,8.9-11.31,8.9-20.26ZM1238.85,130.35c0,16.02-2.85,30.46-8.49,42.92-5.66,12.51-13.67,23.15-23.82,31.62-10.05,8.39-21.97,14.8-35.42,19.04-13.29,4.2-27.95,6.33-43.58,6.33h-48.48V30.67h48.48c15.6,0,30.25,2.09,43.54,6.21,13.48,4.18,25.42,10.6,35.48,19.07,10.13,8.54,18.14,19.16,23.79,31.58,5.64,12.4,8.49,26.8,8.49,42.82ZM1108.04,201.95h19.27c13.57,0,25.66-1.74,35.93-5.16,10.07-3.36,18.57-8.18,25.26-14.33,6.66-6.12,11.82-13.6,15.33-22.25,3.55-8.74,5.35-18.79,5.35-29.85s-2-20.94-5.93-29.63c-3.93-8.67-9.49-16.15-16.51-22.24-7.1-6.14-15.77-10.97-25.76-14.35-10.12-3.42-21.45-5.15-33.67-5.15h-19.27v142.96Z"/>
  <g>
    <path class="st1" d="M39.87,347.39l-18.67-44.51v44.51h-4.61v-52.1h6.41l18.99,45.75,18.99-45.75h6.41v52.1h-4.61v-44.51l-18.67,44.51h-4.23Z"/>
    <path class="st1" d="M99.57,348.01c-1.99,0-3.91-.19-5.76-.56-1.85-.37-3.49-.98-4.92-1.81s-2.59-1.95-3.49-3.36c-.89-1.41-1.34-3.13-1.34-5.17,0-4.11,1.6-7.06,4.79-8.84s7.43-2.68,12.7-2.68c1,0,2.17.06,3.52.19,1.35.13,2.5.25,3.46.37v-.37c0-3.36-.79-5.76-2.37-7.19-1.58-1.43-4.01-2.15-7.28-2.15-.91,0-1.86.08-2.83.25s-1.95.37-2.93.62c-.98.25-1.9.56-2.77.93-.87.37-2.1,1-3.67,1.87l.19-4.98c2.2-1.12,4.36-1.91,6.47-2.37s4.07-.69,5.85-.69c4.61,0,8.05,1.05,10.33,3.14,2.28,2.1,3.42,5.43,3.42,9.99v20.23c-2.12.87-4.3,1.51-6.54,1.93-2.24.42-4.52.62-6.85.62ZM108.53,330.65c-.58-.13-1.65-.27-3.21-.44-1.56-.16-3.02-.25-4.39-.25-1.58,0-3.1.1-4.58.31s-2.78.56-3.92,1.06c-1.14.5-2.03,1.19-2.68,2.09-.64.89-.96,2.08-.96,3.58,0,1.33.27,2.41.81,3.24.54.83,1.27,1.5,2.18,2.02s2.02.88,3.33,1.09c1.31.21,2.69.31,4.14.31,1.7,0,3.4-.14,5.1-.44,1.7-.29,3.09-.64,4.17-1.06v-11.52Z"/>
    <path class="st1" d="M130.63,313.71c2.82-.54,5.39-.94,7.72-1.22,2.32-.27,4.5-.4,6.54-.4s4.08.21,5.88.62,3.36,1.18,4.67,2.3c1.31,1.12,2.3,2.62,2.99,4.51.68,1.89,1.03,4.26,1.03,7.13v20.73h-4.42v-18.86c0-2.53-.24-4.58-.72-6.13-.48-1.56-1.14-2.76-1.99-3.61s-1.92-1.45-3.2-1.81c-1.29-.35-2.78-.53-4.48-.53-2.99,0-6.18.33-9.59,1v29.94h-4.42v-33.68Z"/>
    <path class="st1" d="M199.97,312.78h4.42v32.99c-2.78.79-5.26,1.36-7.44,1.71-2.18.35-4.35.53-6.51.53s-4.1-.21-5.82-.62c-1.72-.42-3.2-1.18-4.42-2.3s-2.15-2.62-2.77-4.51c-.62-1.89-.93-4.26-.93-7.13v-20.67h4.42v18.8c0,2.53.21,4.59.62,6.16.42,1.58,1.01,2.78,1.78,3.61.77.83,1.76,1.42,2.99,1.77s2.69.53,4.39.53c1.41,0,2.91-.1,4.51-.31,1.6-.21,3.18-.54,4.76-1v-29.57Z"/>
    <path class="st1" d="M217.71,312.78h7.34v-5.35c0-4.36,1.13-7.47,3.39-9.34,2.26-1.87,5.34-2.8,9.24-2.8h6.54v4.29h-6.97c-1.49,0-2.74.15-3.74.44-.99.29-1.78.76-2.37,1.4-.58.64-1.01,1.54-1.28,2.68s-.4,2.62-.4,4.45v4.23h14.32v4.29h-14.32v30.32h-4.42v-30.32h-7.34v-4.29Z"/>
    <path class="st1" d="M267.08,348.01c-1.99,0-3.91-.19-5.76-.56s-3.49-.98-4.92-1.81-2.59-1.95-3.49-3.36c-.89-1.41-1.34-3.13-1.34-5.17,0-4.11,1.6-7.06,4.79-8.84s7.43-2.68,12.7-2.68c.99,0,2.17.06,3.52.19s2.5.25,3.46.37v-.37c0-3.36-.79-5.76-2.37-7.19-1.58-1.43-4-2.15-7.28-2.15-.91,0-1.86.08-2.83.25-.98.17-1.95.37-2.93.62-.98.25-1.9.56-2.77.93-.87.37-2.1,1-3.67,1.87l.19-4.98c2.2-1.12,4.36-1.91,6.47-2.37s4.07-.69,5.85-.69c4.61,0,8.05,1.05,10.33,3.14,2.28,2.1,3.42,5.43,3.42,9.99v20.23c-2.12.87-4.29,1.51-6.54,1.93-2.24.42-4.52.62-6.85.62ZM276.04,330.65c-.58-.13-1.65-.27-3.21-.44-1.55-.16-3.02-.25-4.39-.25-1.58,0-3.1.1-4.58.31-1.47.21-2.78.56-3.92,1.06-1.14.5-2.03,1.19-2.68,2.09-.64.89-.96,2.08-.96,3.58,0,1.33.27,2.41.81,3.24.54.83,1.26,1.5,2.18,2.02.91.52,2.02.88,3.33,1.09,1.31.21,2.69.31,4.14.31,1.7,0,3.4-.14,5.1-.44,1.7-.29,3.09-.64,4.17-1.06v-11.52Z"/>
    <path class="st1" d="M295.46,337.28c-.91-2.18-1.37-4.58-1.37-7.19s.46-5.01,1.37-7.19c.91-2.18,2.16-4.08,3.74-5.7,1.58-1.62,3.41-2.87,5.51-3.77,2.1-.89,4.37-1.34,6.82-1.34s4.75.26,6.66.78,3.88,1.34,5.91,2.46l-2.05,4.05c-1.79-1.08-3.46-1.84-5.01-2.27-1.55-.44-3.39-.66-5.51-.66-1.87,0-3.58.35-5.14,1.06-1.56.71-2.9,1.66-4.02,2.86-1.12,1.2-1.99,2.64-2.61,4.3-.62,1.66-.93,3.47-.93,5.42s.31,3.76.93,5.41c.62,1.66,1.49,3.09,2.61,4.3,1.12,1.2,2.46,2.15,4.02,2.83,1.56.69,3.27,1.03,5.14,1.03,2.12,0,3.95-.22,5.51-.65,1.56-.44,3.23-1.19,5.01-2.27l2.05,4.05c-2.03,1.12-4,1.94-5.91,2.46s-4.13.78-6.66.78-4.72-.45-6.82-1.34c-2.1-.89-3.93-2.14-5.51-3.73-1.58-1.6-2.82-3.49-3.74-5.66Z"/>
    <path class="st1" d="M332.5,312.78h7.34v-12.51h4.42v12.51h14.32v4.29h-14.32v16.87c0,1.82.13,3.32.4,4.48.27,1.16.69,2.08,1.28,2.74.58.66,1.37,1.15,2.37,1.46s2.24.47,3.73.47h6.97v4.29h-6.54c-1.83,0-3.5-.2-5.01-.59s-2.85-1.05-4.02-1.96-2.05-2.12-2.68-3.61c-.62-1.49-.93-3.34-.93-5.54v-18.61h-7.34v-4.29Z"/>
    <path class="st1" d="M397.05,312.78h4.42v32.99c-2.78.79-5.26,1.36-7.44,1.71s-4.35.53-6.5.53-4.1-.21-5.82-.62c-1.72-.42-3.2-1.18-4.42-2.3-1.23-1.12-2.15-2.62-2.77-4.51-.62-1.89-.93-4.26-.93-7.13v-20.67h4.42v18.8c0,2.53.21,4.59.62,6.16.41,1.58,1.01,2.78,1.77,3.61s1.76,1.42,2.99,1.77,2.69.53,4.39.53c1.41,0,2.91-.1,4.51-.31s3.18-.54,4.76-1v-29.57Z"/>
    <path class="st1" d="M437.21,317.07h-5.73c-1.29,0-2.68.11-4.17.34-1.49.23-2.53.45-3.11.65v29.32h-4.42v-32.87c1.74-.46,3.55-.86,5.42-1.21s3.76-.53,5.66-.53h6.35v4.29Z"/>
    <path class="st1" d="M449.78,299.4c.66-.66,1.45-1,2.37-1s1.7.33,2.37,1,1,1.45,1,2.37-.33,1.7-1,2.37-1.45,1-2.37,1-1.7-.33-2.37-1-1-1.45-1-2.37.33-1.7,1-2.37ZM449.9,312.78h4.42v34.61h-4.42v-34.61Z"/>
    <path class="st1" d="M472.62,313.71c2.82-.54,5.39-.94,7.72-1.22,2.32-.27,4.5-.4,6.54-.4s4.08.21,5.88.62,3.36,1.18,4.67,2.3c1.31,1.12,2.3,2.62,2.99,4.51.68,1.89,1.03,4.26,1.03,7.13v20.73h-4.42v-18.86c0-2.53-.24-4.58-.72-6.13-.48-1.56-1.14-2.76-1.99-3.61s-1.92-1.45-3.2-1.81c-1.29-.35-2.78-.53-4.48-.53-2.99,0-6.18.33-9.59,1v29.94h-4.42v-33.68Z"/>
    <path class="st1" d="M516.29,336.87c-.81-2.2-1.21-4.52-1.21-6.97s.4-4.76,1.21-6.94c.81-2.18,2.04-4.07,3.7-5.66,1.66-1.6,3.74-2.86,6.26-3.8s5.43-1.4,8.75-1.4c1.58,0,3.35.15,5.32.44,1.97.29,3.97.73,6.01,1.31v34.49c0,4.56-1.35,7.9-4.05,9.99-2.7,2.1-6.31,3.14-10.83,3.14-.95,0-1.94-.05-2.96-.16-1.02-.1-2.03-.26-3.05-.47s-2.01-.47-2.99-.78-1.98-.72-3.02-1.21l-.81-5.48c1.7.91,3,1.56,3.89,1.93.89.37,1.84.68,2.83.93,1,.25,1.98.45,2.96.62s1.92.25,2.83.25c3.32,0,5.95-.73,7.87-2.18,1.93-1.45,2.9-3.84,2.9-7.16v-.44c-2.7.46-5,.69-6.91.69-3.32,0-6.24-.48-8.75-1.43s-4.6-2.26-6.26-3.92c-1.66-1.66-2.9-3.59-3.7-5.79ZM541.91,317.33c-1.04-.21-2.19-.41-3.46-.59-1.26-.19-2.46-.28-3.58-.28-5.15,0-8.94,1.19-11.39,3.58-2.45,2.39-3.67,5.68-3.67,9.87,0,2.12.3,4.02.9,5.7.6,1.68,1.52,3.12,2.77,4.32,1.25,1.2,2.8,2.13,4.67,2.77,1.87.64,4.11.96,6.72.96.91,0,1.99-.06,3.24-.19,1.25-.12,2.51-.35,3.8-.68v-25.46Z"/>
    <path class="st1" d="M604.84,348.01c-2.53,0-4.88-.38-7.03-1.15-2.16-.77-4.02-1.83-5.57-3.18-1.55-1.35-2.76-2.98-3.61-4.89-.85-1.91-1.28-4-1.28-6.29,0-4.02,1.31-7.3,3.92-9.83,2.61-2.53,5.98-4.4,10.08-5.6-1.41-1.53-2.77-3.32-4.08-5.35-1.31-2.03-1.96-4.21-1.96-6.54,0-1.66.35-3.15,1.06-4.48.7-1.33,1.66-2.44,2.86-3.33,1.2-.89,2.62-1.58,4.26-2.05,1.64-.48,3.41-.72,5.32-.72,1.7,0,3.33.21,4.89.62s2.95,1.06,4.17,1.93c1.22.87,2.2,2.02,2.93,3.42.73,1.41,1.09,3.05,1.09,4.92,0,3.45-1.23,6.27-3.7,8.47s-5.38,3.84-8.75,4.92l13.57,13.88c.91-1.45,1.78-3.36,2.61-5.73.83-2.37,1.45-5.04,1.87-8.03h4.61c-.54,3.73-1.32,7.01-2.34,9.84-1.02,2.82-2.21,5.23-3.58,7.22l11.14,11.33h-6.16l-7.72-7.84c-1.95,2.37-4.54,4.37-7.75,6.01s-6.84,2.46-10.86,2.46ZM604.96,343.66c3.4,0,6.42-.69,9.06-2.09,2.64-1.39,4.76-3.08,6.38-5.07l-15.87-16.12c-3.9,1.04-6.95,2.53-9.15,4.48-2.2,1.95-3.3,4.48-3.3,7.6,0,1.74.33,3.31,1,4.7.66,1.39,1.56,2.55,2.68,3.49,1.12.93,2.47,1.67,4.05,2.21,1.58.54,3.3.81,5.17.81ZM600.05,305.06c0,.96.19,1.91.59,2.86.39.96.89,1.9,1.49,2.83s1.3,1.84,2.08,2.71l2.06,2.18c1.53-.46,3.03-1.02,4.48-1.68s2.67-1.4,3.64-2.21c.97-.81,1.71-1.72,2.21-2.74.5-1.02.75-2.17.75-3.46,0-1.08-.21-2.02-.62-2.83s-.99-1.49-1.74-2.05c-.75-.56-1.65-.99-2.71-1.28-1.06-.29-2.21-.44-3.46-.44s-2.41.13-3.49.37c-1.08.25-2,.62-2.77,1.12-.77.5-1.38,1.13-1.84,1.9-.46.77-.68,1.67-.68,2.71Z"/>
    <path class="st1" d="M676.24,339.05c2.37,1.45,4.78,2.58,7.25,3.39,2.47.81,5.07,1.22,7.81,1.22,4.23,0,7.54-.86,9.93-2.58,2.39-1.72,3.58-4.2,3.58-7.44,0-1.49-.27-2.8-.81-3.92-.54-1.12-1.33-2.12-2.37-2.99s-2.31-1.64-3.83-2.3c-1.52-.66-3.21-1.29-5.07-1.87l-3.73-1.12c-4.57-1.37-7.94-3.25-10.11-5.63-2.18-2.38-3.27-5.24-3.27-8.56,0-2.2.47-4.1,1.4-5.7.93-1.6,2.17-2.91,3.7-3.95,1.54-1.04,3.25-1.79,5.14-2.27,1.89-.48,3.83-.72,5.82-.72,3.2,0,6.21.42,9.06,1.25,2.84.83,5.61,2.08,8.31,3.73l-2.37,3.92c-2.37-1.49-4.78-2.62-7.25-3.39s-5.09-1.15-7.87-1.15c-1.54,0-3,.17-4.39.5-1.39.33-2.58.82-3.55,1.46-.98.64-1.76,1.46-2.34,2.46-.58.99-.87,2.16-.87,3.49,0,2.61.84,4.7,2.52,6.26s4.22,2.87,7.63,3.95l4.11,1.25c1.78.54,3.56,1.2,5.32,1.99,1.76.79,3.35,1.78,4.76,2.96,1.41,1.18,2.56,2.59,3.46,4.23.89,1.64,1.34,3.56,1.34,5.76,0,4.77-1.6,8.42-4.79,10.96-3.2,2.53-7.68,3.8-13.45,3.8-3.11,0-6.13-.42-9.06-1.25-2.93-.83-5.74-2.07-8.43-3.73l2.43-3.98Z"/>
    <path class="st1" d="M745.8,346.61c-2.14.93-4.45,1.4-6.94,1.4s-4.8-.47-6.94-1.4c-2.14-.93-3.99-2.22-5.57-3.86-1.58-1.64-2.81-3.54-3.7-5.7-.89-2.16-1.34-4.48-1.34-6.97s.45-4.82,1.34-6.97c.89-2.16,2.13-4.06,3.7-5.7,1.58-1.64,3.43-2.94,5.57-3.89,2.14-.95,4.45-1.43,6.94-1.43s4.8.48,6.94,1.43c2.14.96,3.99,2.25,5.57,3.89,1.58,1.64,2.81,3.54,3.7,5.7.89,2.16,1.34,4.48,1.34,6.97s-.45,4.81-1.34,6.97c-.89,2.16-2.13,4.06-3.7,5.7-1.58,1.64-3.43,2.93-5.57,3.86ZM733.63,342.57c1.58.73,3.32,1.09,5.23,1.09s3.65-.36,5.23-1.09c1.58-.73,2.93-1.7,4.05-2.93s1.99-2.66,2.61-4.3c.62-1.64.93-3.39.93-5.26s-.31-3.63-.93-5.29c-.62-1.66-1.49-3.1-2.61-4.33-1.12-1.22-2.47-2.2-4.05-2.93-1.58-.72-3.32-1.09-5.23-1.09s-3.65.37-5.23,1.09c-1.58.73-2.93,1.7-4.05,2.93-1.12,1.23-1.99,2.67-2.61,4.33-.62,1.66-.93,3.42-.93,5.29s.31,3.62.93,5.26c.62,1.64,1.49,3.07,2.61,4.3,1.12,1.22,2.47,2.2,4.05,2.93Z"/>
    <path class="st1" d="M793.52,312.78h4.42v32.99c-2.78.79-5.26,1.36-7.44,1.71-2.18.35-4.35.53-6.5.53s-4.1-.21-5.82-.62c-1.72-.42-3.2-1.18-4.42-2.3-1.23-1.12-2.15-2.62-2.77-4.51-.62-1.89-.93-4.26-.93-7.13v-20.67h4.42v18.8c0,2.53.21,4.59.62,6.16.41,1.58,1.01,2.78,1.77,3.61s1.76,1.42,2.99,1.77,2.69.53,4.39.53c1.41,0,2.91-.1,4.51-.31s3.18-.54,4.76-1v-29.57Z"/>
    <path class="st1" d="M833.67,317.07h-5.73c-1.29,0-2.68.11-4.17.34-1.49.23-2.53.45-3.11.65v29.32h-4.42v-32.87c1.74-.46,3.55-.86,5.41-1.21,1.87-.35,3.76-.53,5.66-.53h6.35v4.29Z"/>
    <path class="st1" d="M843.69,337.28c-.91-2.18-1.37-4.58-1.37-7.19s.46-5.01,1.37-7.19c.91-2.18,2.16-4.08,3.73-5.7,1.58-1.62,3.41-2.87,5.51-3.77,2.1-.89,4.37-1.34,6.82-1.34s4.75.26,6.66.78,3.88,1.34,5.91,2.46l-2.05,4.05c-1.78-1.08-3.46-1.84-5.01-2.27-1.56-.44-3.39-.66-5.51-.66-1.87,0-3.58.35-5.14,1.06-1.55.71-2.89,1.66-4.02,2.86-1.12,1.2-1.99,2.64-2.61,4.3-.62,1.66-.93,3.47-.93,5.42s.31,3.76.93,5.41c.62,1.66,1.49,3.09,2.61,4.3,1.12,1.2,2.46,2.15,4.02,2.83,1.56.69,3.27,1.03,5.14,1.03,2.11,0,3.95-.22,5.51-.65,1.55-.44,3.23-1.19,5.01-2.27l2.05,4.05c-2.03,1.12-4,1.94-5.91,2.46s-4.13.78-6.66.78-4.72-.45-6.82-1.34c-2.1-.89-3.93-2.14-5.51-3.73-1.58-1.6-2.82-3.49-3.73-5.66Z"/>
    <path class="st1" d="M885.58,299.4c.66-.66,1.45-1,2.37-1s1.7.33,2.37,1,1,1.45,1,2.37-.33,1.7-1,2.37-1.45,1-2.37,1-1.7-.33-2.37-1-1-1.45-1-2.37.33-1.7,1-2.37ZM885.71,312.78h4.42v34.61h-4.42v-34.61Z"/>
    <path class="st1" d="M908.43,313.71c2.82-.54,5.39-.94,7.72-1.22,2.32-.27,4.5-.4,6.54-.4s4.08.21,5.88.62,3.36,1.18,4.67,2.3c1.31,1.12,2.3,2.62,2.99,4.51.68,1.89,1.03,4.26,1.03,7.13v20.73h-4.42v-18.86c0-2.53-.24-4.58-.72-6.13-.48-1.56-1.14-2.76-1.99-3.61-.85-.85-1.92-1.45-3.21-1.81s-2.78-.53-4.48-.53c-2.99,0-6.18.33-9.58,1v29.94h-4.42v-33.68Z"/>
    <path class="st1" d="M952.09,336.87c-.81-2.2-1.22-4.52-1.22-6.97s.4-4.76,1.22-6.94c.81-2.18,2.04-4.07,3.7-5.66,1.66-1.6,3.74-2.86,6.26-3.8s5.42-1.4,8.75-1.4c1.58,0,3.35.15,5.32.44,1.97.29,3.97.73,6.01,1.31v34.49c0,4.56-1.35,7.9-4.05,9.99-2.7,2.1-6.31,3.14-10.83,3.14-.96,0-1.94-.05-2.96-.16-1.02-.1-2.03-.26-3.05-.47-1.02-.21-2.01-.47-2.99-.78s-1.98-.72-3.02-1.21l-.81-5.48c1.7.91,3,1.56,3.89,1.93.89.37,1.84.68,2.83.93.99.25,1.98.45,2.96.62s1.92.25,2.83.25c3.32,0,5.95-.73,7.87-2.18,1.93-1.45,2.9-3.84,2.9-7.16v-.44c-2.7.46-5,.69-6.91.69-3.32,0-6.24-.48-8.75-1.43s-4.6-2.26-6.26-3.92c-1.66-1.66-2.9-3.59-3.7-5.79ZM977.71,317.33c-1.04-.21-2.19-.41-3.46-.59-1.27-.19-2.46-.28-3.58-.28-5.15,0-8.94,1.19-11.39,3.58-2.45,2.39-3.67,5.68-3.67,9.87,0,2.12.3,4.02.9,5.7.6,1.68,1.52,3.12,2.77,4.32,1.25,1.2,2.8,2.13,4.67,2.77,1.87.64,4.11.96,6.72.96.91,0,1.99-.06,3.24-.19,1.25-.12,2.51-.35,3.8-.68v-25.46Z"/>
    <path class="st1" d="M1067.91,347.39h-4.98l-6.6-16.43h-22.91l-6.6,16.43h-4.98l20.91-52.1h4.23l20.92,52.1ZM1035.23,326.41h19.3l-9.65-23.91-9.65,23.91Z"/>
    <path class="st1" d="M1078.02,336.87c-.81-2.2-1.22-4.52-1.22-6.97s.4-4.76,1.22-6.94c.81-2.18,2.04-4.07,3.7-5.66,1.66-1.6,3.74-2.86,6.26-3.8,2.51-.93,5.42-1.4,8.75-1.4,1.58,0,3.35.15,5.32.44,1.97.29,3.97.73,6.01,1.31v34.49c0,4.56-1.35,7.9-4.05,9.99-2.7,2.1-6.31,3.14-10.83,3.14-.96,0-1.94-.05-2.96-.16-1.02-.1-2.03-.26-3.05-.47-1.02-.21-2.01-.47-2.99-.78s-1.98-.72-3.02-1.21l-.81-5.48c1.7.91,3,1.56,3.89,1.93.89.37,1.84.68,2.83.93.99.25,1.98.45,2.96.62s1.92.25,2.83.25c3.32,0,5.95-.73,7.87-2.18,1.93-1.45,2.9-3.84,2.9-7.16v-.44c-2.7.46-5,.69-6.91.69-3.32,0-6.24-.48-8.75-1.43-2.51-.95-4.6-2.26-6.26-3.92-1.66-1.66-2.9-3.59-3.7-5.79ZM1103.64,317.33c-1.04-.21-2.19-.41-3.46-.59-1.27-.19-2.46-.28-3.58-.28-5.15,0-8.94,1.19-11.39,3.58-2.45,2.39-3.67,5.68-3.67,9.87,0,2.12.3,4.02.9,5.7.6,1.68,1.52,3.12,2.77,4.32,1.25,1.2,2.8,2.13,4.67,2.77,1.87.64,4.11.96,6.72.96.91,0,1.99-.06,3.24-.19,1.25-.12,2.51-.35,3.8-.68v-25.46Z"/>
    <path class="st1" d="M1139.87,343.66c2.61,0,4.86-.29,6.75-.87,1.89-.58,3.77-1.43,5.63-2.55l2.12,4.05c-2.16,1.25-4.33,2.18-6.5,2.8-2.18.62-4.85.93-8,.93-2.53,0-4.85-.46-6.97-1.37s-3.96-2.17-5.54-3.77c-1.58-1.6-2.81-3.49-3.7-5.66-.89-2.18-1.34-4.55-1.34-7.13s.46-5.07,1.37-7.25c.91-2.18,2.17-4.06,3.76-5.66,1.6-1.6,3.46-2.84,5.57-3.74,2.12-.89,4.4-1.34,6.85-1.34s4.75.43,6.78,1.28c2.03.85,3.79,2.08,5.26,3.67,1.47,1.6,2.62,3.53,3.46,5.79.83,2.26,1.26,5.05,1.31,8.37h-29.63c.04,1.37.37,2.87,1,4.51.62,1.64,1.5,3.04,2.65,4.2,1.14,1.16,2.49,2.08,4.05,2.74s3.27,1,5.14,1ZM1139.87,316.45c-1.83,0-3.48.29-4.95.87s-2.73,1.38-3.76,2.4c-1.04,1.02-1.89,2.22-2.55,3.61-.66,1.39-1.08,2.58-1.25,3.58h24.28c-.13-1.16-.51-2.44-1.15-3.83-.64-1.39-1.47-2.58-2.49-3.58-1.02-.99-2.21-1.75-3.58-2.27-1.37-.52-2.88-.78-4.54-.78Z"/>
    <path class="st1" d="M1170.81,313.71c2.82-.54,5.39-.94,7.72-1.22,2.32-.27,4.5-.4,6.54-.4s4.08.21,5.88.62,3.36,1.18,4.67,2.3c1.31,1.12,2.3,2.62,2.99,4.51.68,1.89,1.03,4.26,1.03,7.13v20.73h-4.42v-18.86c0-2.53-.24-4.58-.72-6.13-.48-1.56-1.14-2.76-1.99-3.61-.85-.85-1.92-1.45-3.21-1.81s-2.78-.53-4.48-.53c-2.99,0-6.18.33-9.58,1v29.94h-4.42v-33.68Z"/>
    <path class="st1" d="M1212.33,312.78h7.35v-12.51h4.42v12.51h14.32v4.29h-14.32v16.87c0,1.82.13,3.32.4,4.48.27,1.16.69,2.08,1.28,2.74s1.37,1.15,2.37,1.46c1,.31,2.24.47,3.74.47h6.97v4.29h-6.54c-1.83,0-3.5-.2-5.01-.59-1.52-.39-2.85-1.05-4.02-1.96-1.16-.91-2.06-2.12-2.68-3.61-.62-1.49-.93-3.34-.93-5.54v-18.61h-7.35v-4.29Z"/>
  </g>
  <g>
    <polygon class="st4" points="130.33 175.76 40.78 175.76 62.97 105.24 153.31 105.24 130.33 175.76"/>
    <polygon class="st0" points="237.11 175.76 147.56 175.76 169.75 105.24 260.09 105.24 237.11 175.76"/>
    <polygon class="st3" points="343.88 175.76 254.34 175.76 276.53 105.24 366.86 105.24 343.88 175.76"/>
    <polygon class="st0" points="265.63 89.79 176.09 89.79 198.28 19.26 288.61 19.26 265.63 89.79"/>
    <polygon class="st3" points="372.41 89.79 282.87 89.79 305.06 19.26 395.39 19.26 372.41 89.79"/>
    <polygon class="st4" points="103.7 261.74 14.16 261.74 36.35 191.21 126.68 191.21 103.7 261.74"/>
    <polygon class="st0" points="210.48 261.74 120.94 261.74 143.12 191.21 233.46 191.21 210.48 261.74"/>
  </g>
</svg>